<?xml version="1.0" encoding="utf-8"?>
<!-- Generator: Adobe Illustrator 22.1.0, SVG Export Plug-In . SVG Version: 6.00 Build 0)  -->
<svg version="1.1" xmlns="http://www.w3.org/2000/svg" xmlns:xlink="http://www.w3.org/1999/xlink" x="0px" y="0px"
	 viewBox="0 0 137.3 141.3" style="enable-background:new 0 0 137.3 141.3;" xml:space="preserve">
<style type="text/css">
	.st0{display:none;}
	.st1{fill:none;stroke:#FFCA56;stroke-width:8;stroke-miterlimit:10;}
	.st2{fill:#C36B00;}
	.st3{fill:#794500;}
	.st4{fill:#6E3400;}
</style>
<g id="Layer_1" class="st0">
	
		<image style="display:inline;overflow:visible;" width="32" height="32" xlink:href="617AE1A1.png"  transform="matrix(4.2891 0 0 4.4141 0 0)">
	</image>
</g>
<g id="Layer_4">
	<path class="st1" d="M56.4,17.4c19.7,2.3,47.5,20.8,60.5,43.3"/>
</g>
<g id="rune">
	<polygon class="st2" points="68.6,55.1 97.9,25.4 46.9,26.4 36.6,34.6 	"/>
	<polygon class="st3" points="64.9,118.9 68.6,55.1 36.6,34.6 37.4,93.1 	"/>
	<polygon class="st4" points="97.9,25.4 96.1,67.6 86.1,102.1 64.9,118.9 68.6,55.1 	"/>
</g>
<g id="ring">
	<g>
		<path class="st1" d="M116.9,60.6c2.3,4,5,16.1,3.3,21.8c-1.1,3.7-2.6,7.4-4.5,10.7c-6.6,11.1-17.5,28.3-37.5,34.5
			c-9.3,2.9-30.3,2.5-39-2c-7.3-3.8-12.8-10-16-15.3C11.1,91,36.6,60.1,36.6,60.1c-4.3-8.8-15-8.8-18.5-27.8c0,0-4-20,38.3-15"/>
		<path class="st1" d="M33.6,56.1c0,0,26.5,20.7,35.7,23.5c12.1,3.7,50.8,2.8,50.8,2.8"/>
	</g>
</g>
</svg>
