<?xml version="1.0" encoding="utf-8"?>
<!-- Generator: Adobe Illustrator 22.1.0, SVG Export Plug-In . SVG Version: 6.00 Build 0)  -->
<svg version="1.1" id="Layer_1" xmlns="http://www.w3.org/2000/svg" xmlns:xlink="http://www.w3.org/1999/xlink" x="0px" y="0px"
	 viewBox="0 0 60.2 60.2" style="enable-background:new 0 0 60.2 60.2;" xml:space="preserve">
<style type="text/css">
	.st0{fill:#F1C45D;stroke:#000000;stroke-width:2px;stroke-miterlimit:10;}
</style>
<circle class="st0" cx="30.1" cy="30.1" r="16.8"/>
<path class="st0" d="M30.1,1.4l-3.4,9.5c0,0,3.4-1,7.2,0L30.1,1.4z"/>
<path class="st0" d="M50.5,9.9l-9.2,4.3c0,0,3.1,1.7,5.1,5.1L50.5,9.9z"/>
<path class="st0" d="M58.8,29.9l-9.5-3.3c0,0,1.1,3.4,0.1,7.2L58.8,29.9z"/>
<path class="st0" d="M50.6,50.2l-4.4-9.1c0,0-1.6,3.1-5,5.1L50.6,50.2z"/>
<path class="st0" d="M30.4,58.8l3.3-9.5c0,0-3.4,1.1-7.2,0.1L30.4,58.8z"/>
<path class="st0" d="M10,50.6l9.1-4.4c0,0-3.1-1.6-5.1-5L10,50.6z"/>
<path class="st0" d="M1.4,30.4l9.5,3.3c0,0-1.1-3.4-0.1-7.2L1.4,30.4z"/>
<path class="st0" d="M9.6,10l4.4,9.1c0,0,1.6-3.1,5-5.1L9.6,10z"/>
</svg>
